<svg id="Layer_1" data-name="Layer 1" xmlns="http://www.w3.org/2000/svg" viewBox="0 0 545.9 541"><defs><style>.cls-1{fill:#1a1a1a;stroke:#000;stroke-miterlimit:10;stroke-width:10px;}.cls-2{fill:#fff;}</style></defs><title>tabl_rund</title><rect class="cls-1" x="9.9" y="5" width="531" height="531" rx="265.5"/><g id="Layer_2" data-name="Layer 2"><g id="Layer_1-2" data-name="Layer 1-2"><path class="cls-2" d="M351.08,152.32S442.26,101.59,456,36.06,384.8,53,384.8,53s-45,62.36-45,77.15-12.49,9.52-12.49,9.52-2.5-29.6-16.24-32.77c-12.71-2.94-16.33,2.27-16.81,3.08l25.56-57s-8.75-12.69-15-6.35-73.69,119.44-73.69,142.69c-8.75,22.2-11.25,16.91-11.25,16.91s11.25-66.58,17.49-74-13.74-18-16.24-8.46c-10-8.45-30-10.57-41.21,1.06s-28.73,52.85-28.73,52.85S98.78,221,77.55,239s-23.73,28.53-33.73,20.08,1.25-78.21,27.48-119.43C81.06,124.3,92,106,102,89.11,173.76,55.86,260.5,21.79,328.6,13.86,464.74-2,356.08,3.29,356.08,3.29s-109.92,5-233.39,50.07c6-10.57,9.81-17.3,9.81-17.3S130,21.26,121.26,27.6c-2.77,2-16.15,16.53-32.91,39.25C42.14,86.36-4.73,111.79-47.35,144.92c-17.49,14.8-3.75,24.31,12.49,14.8,6.45-3.79,43.71-25.09,94.76-50.41C30.31,158.17,2,222.56,5.1,284.44c27.48,55,143.64-70.82,143.64-70.82s6.25,16.91,13.74,16.91,28.73-8.45,36.22-27.48c6.25,21.14,7.5,27.48,15,29.6s21.23-7.4,22.48-12.69c7.5,9.51,17.49-8.45,17.49-8.45l7.49-16.91S267.4,221,278.64,220s32.47-14.79,42.47-33.82c0,21.14-6.25,41.22,0,43.33S344.84,249.56,406,194.6c28.73-23.26,18.73-25.37,18.73-25.37s-74.94,44.39-78.68,44.39-12.49-10.57-3.75-35.93ZM428.52,33.94c18.74-8.45-42.47,88.78-68.7,90.9C359.82,124.84,409.79,42.4,428.52,33.94ZM197.45,168.17C190,180.86,170.82,202,170.82,202s1.65-20.08,10.4-38.46a88.52,88.52,0,0,1,25-30.24s-1.25,22.2-8.75,34.88Zm109.92-8.45c-5,13.74-15,37-26.23,32.76s-11.24-6.34-12.49-21.14c-1.53-18,20-50.73,27.47-50.73S312.36,146,307.37,159.72Z" transform="translate(55.5 120.11)"/></g></g></svg>